<?xml version="1.0" encoding="UTF-8"?>
<!DOCTYPE svg PUBLIC "-//W3C//DTD SVG 1.1//EN" "http://www.w3.org/Graphics/SVG/1.1/DTD/svg11.dtd">
<!-- Creator: CorelDRAW 2021 (64-Bit) -->
<svg xmlns="http://www.w3.org/2000/svg" xml:space="preserve" width="200px" height="200px" version="1.1" style="shape-rendering:geometricPrecision; text-rendering:geometricPrecision; image-rendering:optimizeQuality; fill-rule:evenodd; clip-rule:evenodd"
viewBox="0 0 407 244.19"
 xmlns:xlink="http://www.w3.org/1999/xlink"
 xmlns:xodm="http://www.corel.com/coreldraw/odm/2003">
 <defs>
  <style type="text/css">
   <![CDATA[
    .str0 {stroke:#008CCF;stroke-width:1.04;stroke-miterlimit:10}
    .fil0 {fill:none}
    .fil1 {fill:none;fill-rule:nonzero}
    .fil2 {fill:#008CCF}
   ]]>
  </style>
 </defs>
 <g id="Capa_x0020_1">
  <metadata id="CorelCorpID_0Corel-Layer"/>
  <rect class="fil0" x="-0.68" y="0.01" width="200" height="200.2"/>
  <polygon class="fil1 str0" points="129.33,61.04 129.72,39.54 163.47,39.54 163.47,43.09 "/>
  <polygon class="fil1 str0" points="276.59,60.78 241.95,42.83 241.95,39.28 276.19,39.28 "/>
  <path class="fil2" d="M165.11 29.29l1.67 -1.09c0.71,-0.48 1.86,-0.87 2.63,-1.14 2.74,-0.91 5.74,-1.44 8.61,-1.82l0.23 -2.76 12.53 -2.38 1.8 2.75 6.28 -0.1 0.12 -0.15 3.85 0.06 3.86 -0.06 0.12 0.15 6.28 0.1 1.8 -2.75 12.54 2.38 0.2 2.76c2.87,0.38 5.87,0.91 8.61,1.82 0.79,0.27 1.95,0.66 2.65,1.14l1.65 1.09 -75.43 0z"/>
  <path class="fil0 str0" d="M202.83 223.78c-7.9,0.45 -15.85,0.41 -23.76,0 -7,-0.35 -14,-0.97 -20.96,-1.82 -5,-0.6 -9.98,-1.32 -14.94,-2.19 -1.89,-0.31 -3.82,-0.66 -5.7,-1.05l-0.33 -0.06 -2.52 -4.44 -5.16 -8.14 -1.7 -3.55 0.21 -38.85 0.99 -1.39 0.19 -7.12 -1.39 -1 0.21 -37.92 0.99 -0.99 0.19 -6.2 -1.18 -1.57 0 -0.25c0,-6.89 0,-13.79 -0.02,-20.69 -0.02,-4.3 -0.04,-8.57 -0.06,-12.87 -0.02,-1.59 -0.02,-3.16 -0.04,-4.73 -0.02,-0.91 -0.02,-1.8 -0.06,-2.68 -0.11,-1.88 0.47,-3.66 1.65,-5.13 0.47,-0.6 1.2,-1.3 1.86,-1.69l0.02 0 32.63 -16.38 -0.1 -12.21 0.1 -0.18c1.06,-1.61 2.83,-2.15 4.59,-2.61l0.04 -0.02 0.04 0c9.54,-1.36 19.09,-1.96 28.73,-2.21l0.04 -0.16 0.52 0c1.65,0.02 3.28,0.04 4.92,0.06 1.65,-0.02 3.28,-0.04 4.91,-0.06l0.52 0 0.06 0.16c9.63,0.25 19.17,0.85 28.71,2.21l0.04 0 0.04 0.02c1.76,0.46 3.56,1 4.59,2.61l0.12 0.18 -0.1 12.21 32.61 16.38 0.03 0c0.66,0.39 1.38,1.09 1.85,1.69 1.18,1.47 1.76,3.25 1.68,5.13 -0.04,0.88 -0.04,1.77 -0.07,2.68 -0.02,1.57 -0.04,3.14 -0.04,4.73 -0.04,4.3 -0.06,8.57 -0.06,12.87 -0.02,6.9 -0.04,13.8 -0.04,20.69l0 0.25 -1.18 1.57 0.19 6.2 0.99 0.99 0.21 37.92 -1.39 1 0.19 7.12 0.99 1.39 0.21 38.85 -1.68 3.55 -5.16 8.14 -2.54 4.44 -0.31 0.06c-1.9,0.39 -3.8,0.74 -5.7,1.05 -4.96,0.87 -9.96,1.59 -14.94,2.19 -6.98,0.85 -13.96,1.47 -20.96,1.82 -7.91,0.41 -15.86,0.45 -23.77,0z"/>
  <path class="fil2" d="M132.85 205.63c0,0 31.52,4 62.5,3.81l-0.35 0.87c0,0.03 -50.13,-1.34 -62.15,-4.68z"/>
  <path class="fil2" d="M132.08 168.22c0,0 65.75,-0.15 98.24,-0.76 -31.13,-0.11 -58.41,0.33 -88.45,0.14 -1.57,0.15 -4.25,0.5 -9.79,0.62z"/>
  <path class="fil2" d="M198.16 57.65c-4.36,-0.02 -8.74,-0.06 -13.08,-0.22l-0.89 -0.05 5.38 -22.1 0.53 -0.04c4.4,-0.19 8.84,-0.33 13.24,-0.39 0.64,-0.02 1.26,-0.02 1.88,-0.02 1.08,0 2.13,0 3.18,0.02 0.77,0.02 1.55,0.06 2.29,0.14 1.64,0.06 3.27,0.15 4.88,0.25l0.54 0.04 5.35 22.1 -0.87 0.05c-2.11,0.08 -4.23,0.12 -6.34,0.16l0.02 0.15 -0.78 0c-2.88,0 -5.73,-0.03 -8.6,-0.03 -1.98,0 -3.96,0.03 -5.95,0.03l-0.78 0 0 -0.09z"/>
  <path class="fil2" d="M131.77 69.35c3.93,0.13 4.18,0 8.12,0.14 43.29,-0.09 82.08,-0.17 127.75,-0.12 -9.69,-0.39 -8.57,-0.17 -12.47,-0.31 -41.4,-0.05 -83.33,0.09 -123.4,0.29z"/>
  <path class="fil2" d="M272.83 205.63c0,0 -31.52,4 -62.53,3.81l0.35 0.87c0,0.03 50.13,-1.34 62.18,-4.68z"/>
  <path class="fil2" d="M273.96 156.98c0,0 -94.78,0.47 -102.98,0.49 -8.18,0.03 -14.15,0.05 -14.15,0.05 0,0 24.08,-0.37 30.77,-0.56 6.7,-0.2 79.67,-0.34 79.67,-0.34l6.69 0.36z"/>
  <polygon class="fil2" points="274.13,106.91 265.66,107.2 166.16,107.2 187.04,106.92 "/>
  <path class="fil2" d="M130.86 117.36c0,0 80.5,-0.06 87.46,-0.08 6.94,-0.03 12,-0.03 12,-0.03 0,0 -20.57,-0.22 -26.34,-0.36 -5.76,-0.15 -67.62,0.09 -67.62,0.09l-5.5 0.38z"/>
 </g>
</svg>
